<?xml version="1.0" standalone="no"?>
<!DOCTYPE svg PUBLIC "-//W3C//DTD SVG 20010904//EN"
 "http://www.w3.org/TR/2001/REC-SVG-20010904/DTD/svg10.dtd">
<svg version="1.0" xmlns="http://www.w3.org/2000/svg"
 width="1024.000000pt" height="1024.000000pt" viewBox="0 0 1024.000000 1024.000000"
 preserveAspectRatio="xMidYMid meet">
<metadata>
Created by potrace 1.14, written by Peter Selinger 2001-2017
</metadata>
<g transform="translate(0.000000,1024.000000) scale(0.100000,-0.100000)"
fill="#000000" stroke="none">
<path d="M3597 9244 c-4 -4 -150 -9 -325 -10 -499 -4 -670 -19 -917 -80 -198
-49 -358 -118 -520 -222 -38 -25 -75 -45 -82 -45 -7 0 -10 -4 -8 -7 3 -4 -12
-19 -33 -33 -20 -14 -52 -39 -71 -56 -18 -17 -38 -28 -45 -24 -6 3 -8 3 -4 -2
4 -4 -33 -51 -83 -104 -50 -52 -118 -134 -151 -181 -33 -47 -64 -84 -70 -82
-5 1 -7 -2 -3 -8 4 -6 -12 -42 -34 -81 -23 -39 -44 -82 -47 -96 -4 -13 -12
-27 -20 -30 -7 -2 -10 -12 -7 -20 5 -12 3 -14 -7 -8 -8 5 -11 4 -7 -2 4 -6 -1
-28 -10 -49 -9 -22 -17 -41 -18 -44 -1 -3 -8 -27 -15 -53 -9 -33 -17 -47 -26
-43 -11 4 -11 1 -1 -16 9 -16 9 -22 -1 -25 -6 -3 -10 -8 -8 -12 3 -3 -2 -36
-10 -71 -8 -36 -17 -83 -21 -105 -3 -22 -10 -48 -15 -59 -8 -14 -7 -17 3 -11
7 5 10 4 6 -2 -17 -28 -34 -232 -37 -460 -2 -82 -5 -111 -14 -106 -8 5 -8 3 0
-8 13 -16 12 -137 -1 -158 -5 -8 -4 -12 1 -8 5 3 8 -38 7 -96 -1 -56 -3 -136
-4 -177 -1 -41 -6 -81 -13 -89 -8 -11 -8 -13 2 -7 9 5 12 -6 12 -46 0 -30 -6
-60 -12 -67 -10 -11 -10 -13 -1 -7 18 10 18 -214 1 -233 -10 -11 -10 -13 0 -7
17 10 17 -95 0 -113 -10 -11 -10 -13 0 -7 9 5 12 -6 12 -46 0 -30 -6 -60 -12
-67 -10 -11 -10 -13 0 -7 9 5 12 -6 12 -46 0 -30 -6 -60 -12 -67 -9 -9 -9 -12
-1 -7 17 9 17 -572 0 -593 -9 -12 -9 -13 0 -7 18 10 18 -95 1 -113 -10 -11
-10 -13 0 -7 17 10 17 -95 0 -113 -10 -11 -10 -13 0 -7 17 10 17 -95 0 -113
-9 -9 -9 -12 -1 -7 10 6 17 -282 13 -614 -1 -47 -1 -93 -1 -102 2 -157 2 -229
1 -235 -1 -5 -1 -12 0 -18 5 -24 5 -175 -1 -175 -3 0 -6 -7 -6 -15 0 -8 4 -15
8 -15 10 0 6 -34 -6 -42 -6 -5 -5 -8 3 -8 6 0 12 -5 12 -11 0 -5 -5 -7 -12 -3
-7 5 -8 3 -3 -6 12 -19 12 -70 0 -70 -6 0 -6 -3 0 -8 13 -9 13 -175 0 -184 -7
-6 -7 -10 0 -15 14 -11 15 -103 1 -103 -7 0 -7 -3 -1 -8 14 -10 14 -65 1 -74
-8 -6 -8 -8 0 -8 8 0 12 -38 13 -117 1 -140 10 -284 18 -297 4 -5 1 -6 -6 -1
-10 6 -11 3 -2 -14 7 -11 10 -21 7 -21 -2 0 0 -16 4 -35 5 -24 4 -35 -4 -35
-7 0 -8 -3 -1 -8 6 -4 12 -20 13 -37 1 -16 6 -54 12 -84 6 -29 9 -60 6 -68 -3
-8 -2 -12 3 -9 13 9 20 -41 7 -55 -8 -9 -8 -10 1 -5 14 8 29 -36 19 -53 -3 -5
-3 -11 1 -13 5 -1 21 -43 37 -93 16 -49 34 -96 39 -102 5 -7 6 -21 3 -30 -4
-10 -4 -14 0 -10 4 4 28 -34 52 -85 25 -51 53 -104 63 -117 10 -13 17 -27 14
-30 -2 -4 5 -14 16 -21 10 -8 19 -20 19 -26 0 -6 7 -17 15 -24 16 -14 10 -34
-7 -24 -7 4 -8 2 -4 -4 4 -6 13 -9 20 -6 16 6 59 -49 48 -61 -4 -5 -2 -5 5 -1
12 7 40 -31 35 -47 -1 -5 2 -6 7 -3 5 3 14 -1 21 -9 7 -8 9 -15 4 -15 -5 0 6
-10 24 -21 17 -12 33 -25 33 -30 1 -5 2 -13 3 -18 0 -5 5 -13 10 -18 5 -5 6
-3 2 4 -10 18 0 16 24 -4 11 -10 20 -23 20 -30 0 -7 5 -13 10 -13 6 0 43 -27
83 -60 41 -33 77 -60 81 -60 13 0 35 -27 28 -35 -4 -5 -2 -5 4 -2 6 3 34 -9
62 -28 28 -18 61 -36 72 -40 11 -4 18 -11 15 -16 -3 -5 1 -6 9 -3 9 3 16 1 16
-6 0 -6 5 -8 12 -4 8 5 9 2 4 -11 -5 -13 -3 -15 6 -8 15 11 62 -9 50 -22 -4
-5 -2 -5 5 -2 6 4 24 2 40 -5 15 -6 31 -11 36 -10 12 3 8 -16 -5 -21 -10 -4
-10 -6 -1 -6 6 -1 14 3 17 8 6 9 65 -7 76 -20 3 -3 19 -9 35 -11 17 -3 57 -14
90 -23 33 -9 66 -17 73 -18 6 0 12 -3 12 -7 0 -3 12 -6 28 -6 64 -1 74 -4 69
-19 -4 -8 -2 -17 4 -20 5 -4 9 -3 8 2 -4 24 2 35 14 26 6 -6 19 -11 27 -11 8
-1 35 -2 59 -3 29 -1 39 -4 30 -10 -9 -6 -10 -9 -2 -9 6 0 15 5 18 10 4 6 11
8 16 4 9 -5 66 -10 177 -15 39 -2 52 -6 48 -15 -3 -7 -1 -16 5 -19 5 -4 9 -3
8 2 -3 19 2 33 12 33 5 0 7 -6 3 -12 -6 -10 -4 -10 7 -2 20 15 45 11 41 -6 -1
-10 3 -8 13 4 8 11 15 14 15 8 0 -8 6 -10 18 -5 15 7 40 8 67 3 6 -1 52 -2
103 -1 69 0 91 -3 85 -12 -5 -9 -3 -9 8 -1 17 13 178 13 198 0 9 -6 12 -5 8 1
-8 13 92 12 112 -1 9 -6 12 -5 8 1 -8 13 92 12 112 -1 9 -6 12 -5 8 1 -8 13
92 12 112 -1 9 -6 12 -5 8 1 -8 13 92 12 112 -1 9 -6 12 -5 8 1 -8 13 92 12
112 -1 10 -6 12 -6 7 2 -10 17 56 16 73 0 8 -7 11 -8 8 -2 -8 13 91 13 112 0
9 -6 12 -5 8 1 -8 13 91 11 112 -1 10 -6 12 -5 7 2 -8 14 51 11 73 -2 9 -6 12
-5 8 1 -8 13 92 12 112 -1 9 -6 12 -5 8 1 -8 13 92 12 112 -1 10 -6 12 -6 7 2
-10 17 56 16 73 0 8 -7 11 -8 8 -2 -8 13 91 13 112 0 9 -6 12 -5 8 1 -8 13 91
11 112 -1 9 -6 12 -5 8 1 -8 13 92 12 112 -1 9 -6 12 -5 8 1 -8 13 92 12 112
-1 9 -6 12 -5 8 1 -8 13 92 12 112 -1 9 -6 12 -5 8 1 -8 13 92 12 112 -1 9 -6
12 -5 8 1 -8 13 92 12 112 -1 9 -6 12 -5 8 0 -3 6 24 10 64 11 38 1 67 -2 64
-7 -3 -5 -1 -12 5 -15 6 -4 9 -1 8 7 -2 9 10 14 36 16 23 2 36 0 32 -7 -4 -5
-2 -13 4 -16 6 -4 9 -1 8 7 -2 9 10 14 36 16 23 2 36 0 32 -7 -4 -5 -2 -13 4
-16 6 -4 9 -1 8 7 -2 9 10 14 36 16 23 2 36 0 32 -7 -4 -5 -2 -13 4 -16 6 -4
9 -1 8 7 -4 17 71 21 91 5 10 -8 13 -8 8 -1 -8 14 91 13 112 0 9 -6 12 -5 8 1
-8 13 92 12 112 -1 9 -6 12 -5 8 1 -8 13 92 12 112 -1 9 -6 12 -5 8 1 -8 13
92 12 112 -1 10 -6 12 -6 7 2 -5 8 1 12 14 12 14 0 19 -4 14 -12 -6 -10 -4
-10 7 -2 17 14 102 18 94 5 -3 -5 -1 -13 5 -16 6 -4 9 -1 8 7 -2 9 10 14 36
16 23 2 36 0 32 -7 -4 -5 -2 -13 4 -16 6 -4 9 -1 8 7 -2 10 25 13 130 13 72 0
132 2 132 5 0 3 27 5 60 5 33 0 60 -4 60 -9 0 -5 7 -3 15 4 12 10 15 10 15 0
0 -10 3 -10 15 0 12 10 15 10 15 -1 0 -11 2 -11 10 1 9 13 10 13 10 0 0 -9 3
-11 8 -5 4 6 22 12 41 14 26 2 31 0 25 -11 -6 -11 -5 -11 8 0 19 15 87 20 107
8 10 -6 12 -5 7 3 -5 8 2 11 21 11 69 0 123 6 123 13 0 4 5 7 11 7 6 0 8 -8 5
-18 -5 -14 -4 -14 9 2 8 11 15 16 15 12 0 -5 6 -4 13 2 6 5 23 9 37 8 14 -1
27 1 30 5 3 4 23 9 45 12 22 3 70 14 107 25 37 10 70 17 73 14 3 -3 5 -1 5 5
0 6 13 10 30 9 16 -1 30 2 30 6 0 7 35 25 65 33 6 1 27 10 48 19 21 9 43 14
49 10 7 -4 8 -3 4 4 -6 11 6 16 27 13 4 0 7 3 7 7 0 12 50 33 61 26 5 -3 8 -1
7 6 -2 6 19 23 47 38 27 15 54 32 61 37 6 6 22 17 34 25 13 8 36 26 52 39 15
12 35 21 43 18 9 -4 12 -1 9 7 -6 17 22 40 37 30 7 -4 9 -3 6 3 -8 12 90 106
102 98 5 -3 13 0 17 6 4 8 3 9 -4 5 -16 -10 -15 9 1 23 10 8 17 7 27 -2 12
-10 12 -9 2 4 -10 13 -9 19 2 28 8 7 16 8 18 4 3 -4 3 -2 1 6 -2 7 12 29 31
47 19 19 32 34 28 34 -4 0 -2 4 3 8 6 4 28 33 49 64 21 32 43 55 47 52 5 -3 6
3 2 12 -4 11 -3 15 5 10 6 -3 14 -1 18 5 4 8 3 9 -4 5 -19 -12 -14 8 12 43 13
18 30 45 36 62 7 16 16 27 19 24 4 -2 7 6 7 18 -1 16 4 21 19 19 16 -2 17 -1
6 7 -12 8 -12 12 -2 25 8 9 10 16 5 16 -4 0 -3 5 4 12 7 7 12 20 12 30 0 9 8
22 18 27 13 8 13 10 2 11 -11 0 -11 3 -2 12 7 7 12 20 12 31 0 10 4 15 10 12
5 -3 7 0 4 9 -3 8 -2 21 2 28 5 7 9 18 11 23 1 6 9 37 18 70 9 33 18 71 20 85
2 14 4 25 5 25 2 0 7 28 15 81 3 22 8 52 10 65 3 14 6 46 7 72 2 26 5 47 8 47
3 0 6 24 6 53 5 179 7 216 16 211 6 -4 5 2 -1 13 -9 18 -8 58 4 91 2 6 1 12
-3 12 -5 0 -7 15 -5 33 2 17 3 302 4 632 0 449 3 603 12 614 9 12 9 13 0 7
-18 -10 -18 95 -1 113 10 11 10 13 1 7 -18 -10 -18 95 -1 113 10 11 10 13 1 7
-10 -5 -13 6 -13 46 0 30 6 60 13 67 7 9 8 12 0 7 -16 -9 -17 892 0 913 9 12
9 13 0 7 -18 -10 -18 95 0 113 10 11 10 13 0 7 -10 -5 -13 6 -13 46 0 30 6 60
13 67 9 11 9 13 0 7 -10 -5 -13 6 -13 46 0 30 6 60 13 67 8 9 8 12 0 7 -16 -9
-16 773 0 793 9 12 9 13 -1 7 -9 -6 -12 21 -12 121 0 171 0 165 4 188 2 11 -1
28 -6 39 -7 14 -7 16 2 11 9 -6 9 -3 1 13 -10 18 -8 58 4 70 2 3 0 12 -7 19
-9 11 -9 16 1 23 7 4 9 9 3 11 -5 2 -12 58 -16 124 -4 66 -10 146 -15 178 -4
32 -7 71 -7 86 1 16 -2 27 -6 24 -5 -2 -8 8 -9 24 0 15 -3 37 -5 48 -2 11 -6
31 -9 45 -2 14 -4 25 -5 25 -1 0 -3 7 -5 15 -22 87 -47 166 -68 219 -15 35
-24 67 -21 72 3 5 2 9 -3 9 -8 0 -69 122 -64 129 1 2 -2 7 -7 10 -5 3 -20 25
-33 48 -56 100 -162 235 -266 340 -61 62 -115 113 -118 113 -3 0 -16 9 -28 21
-12 11 -43 34 -69 51 -27 17 -48 36 -48 41 0 6 -3 8 -6 4 -3 -3 -29 9 -57 27
-72 46 -166 93 -264 130 -46 18 -80 36 -76 41 5 4 3 5 -4 1 -7 -4 -55 5 -107
19 -99 27 -223 51 -316 61 -30 3 -68 8 -85 10 -69 9 -392 18 -702 18 -183 1
-333 5 -333 9 0 4 -8 4 -17 0 -10 -5 -31 -7 -48 -6 -16 2 -37 3 -45 3 -147 -1
-1995 -2 -2032 -1 -45 1 -104 1 -411 -2 -180 -1 -328 2 -330 6 -1 5 -6 5 -10
1z"/>
<path d="M993 7635 c0 -8 4 -12 9 -9 5 3 6 10 3 15 -9 13 -12 11 -12 -6z"/>
<path d="M986 7398 c3 -5 10 -6 15 -3 13 9 11 12 -6 12 -8 0 -12 -4 -9 -9z"/>
<path d="M940 6400 c-9 -6 -10 -10 -3 -10 6 0 15 5 18 10 8 12 4 12 -15 0z"/>
<path d="M9267 3319 c7 -7 15 -10 18 -7 3 3 -2 9 -12 12 -14 6 -15 5 -6 -5z"/>
<path d="M9275 3209 c-4 -6 -5 -12 -2 -15 2 -3 7 2 10 11 7 17 1 20 -8 4z"/>
<path d="M950 2759 c0 -5 5 -7 10 -4 6 3 10 8 10 11 0 2 -4 4 -10 4 -5 0 -10
-5 -10 -11z"/>
<path d="M995 2681 c-3 -5 -2 -12 3 -15 5 -3 9 1 9 9 0 17 -3 19 -12 6z"/>
<path d="M1026 2162 c-3 -5 1 -9 9 -9 8 0 12 4 9 9 -3 4 -7 8 -9 8 -2 0 -6 -4
-9 -8z"/>
<path d="M1150 2056 c0 -2 8 -10 18 -17 15 -13 16 -12 3 4 -13 16 -21 21 -21
13z"/>
<path d="M9036 1858 c3 -5 10 -6 15 -3 13 9 11 12 -6 12 -8 0 -12 -4 -9 -9z"/>
<path d="M8956 1793 c-6 -14 -5 -15 5 -6 7 7 10 15 7 18 -3 3 -9 -2 -12 -12z"/>
<path d="M1296 1773 c-6 -14 -5 -15 5 -6 7 7 10 15 7 18 -3 3 -9 -2 -12 -12z"/>
<path d="M8840 1660 c-12 -7 -10 -9 7 -7 12 0 19 5 17 9 -6 10 -6 10 -24 -2z"/>
<path d="M1406 1622 c-3 -5 1 -9 9 -9 8 0 12 4 9 9 -3 4 -7 8 -9 8 -2 0 -6 -4
-9 -8z"/>
<path d="M1456 1562 c-3 -5 1 -9 9 -9 8 0 12 4 9 9 -3 4 -7 8 -9 8 -2 0 -6 -4
-9 -8z"/>
<path d="M1556 1413 c-6 -14 -5 -15 5 -6 7 7 10 15 7 18 -3 3 -9 -2 -12 -12z"/>
<path d="M8556 1333 c-6 -14 -5 -15 5 -6 7 7 10 15 7 18 -3 3 -9 -2 -12 -12z"/>
<path d="M1810 1259 c0 -5 5 -7 10 -4 6 3 10 8 10 11 0 2 -4 4 -10 4 -5 0 -10
-5 -10 -11z"/>
<path d="M8380 1266 c0 -2 8 -10 18 -17 15 -13 16 -12 3 4 -13 16 -21 21 -21
13z"/>
<path d="M8353 1245 c0 -8 4 -12 9 -9 5 3 6 10 3 15 -9 13 -12 11 -12 -6z"/>
<path d="M8436 1242 c-3 -5 1 -9 9 -9 8 0 12 4 9 9 -3 4 -7 8 -9 8 -2 0 -6 -4
-9 -8z"/>
<path d="M8376 1218 c3 -5 10 -6 15 -3 13 9 11 12 -6 12 -8 0 -12 -4 -9 -9z"/>
<path d="M1947 1199 c7 -7 15 -10 18 -7 3 3 -2 9 -12 12 -14 6 -15 5 -6 -5z"/>
<path d="M1910 1179 c0 -5 5 -7 10 -4 6 3 10 8 10 11 0 2 -4 4 -10 4 -5 0 -10
-5 -10 -11z"/>
<path d="M8290 1179 c0 -5 5 -7 10 -4 6 3 10 8 10 11 0 2 -4 4 -10 4 -5 0 -10
-5 -10 -11z"/>
<path d="M8275 1150 c-4 -6 -11 -7 -17 -4 -7 4 -8 2 -4 -5 6 -9 11 -9 22 0 14
11 18 19 10 19 -3 0 -8 -5 -11 -10z"/>
<path d="M2175 1111 c-3 -5 -2 -12 3 -15 5 -3 9 1 9 9 0 17 -3 19 -12 6z"/>
<path d="M8175 1099 c-3 -4 2 -6 10 -5 21 3 28 13 10 13 -9 0 -18 -4 -20 -8z"/>
<path d="M7986 1078 c3 -5 10 -6 15 -3 13 9 11 12 -6 12 -8 0 -12 -4 -9 -9z"/>
<path d="M8110 1080 c0 -5 5 -10 11 -10 5 0 7 5 4 10 -3 6 -8 10 -11 10 -2 0
-4 -4 -4 -10z"/>
<path d="M2190 1059 c0 -5 5 -7 10 -4 6 3 10 8 10 11 0 2 -4 4 -10 4 -5 0 -10
-5 -10 -11z"/>
<path d="M2315 1039 c-3 -4 2 -6 10 -5 21 3 28 13 10 13 -9 0 -18 -4 -20 -8z"/>
<path d="M2393 1035 c0 -8 4 -12 9 -9 5 3 6 10 3 15 -9 13 -12 11 -12 -6z"/>
<path d="M7813 1031 c0 -11 5 -18 9 -15 4 3 5 11 1 19 -7 21 -12 19 -10 -4z"/>
<path d="M2356 998 c3 -5 10 -6 15 -3 13 9 11 12 -6 12 -8 0 -12 -4 -9 -9z"/>
<path d="M7559 993 c-13 -16 -12 -17 4 -4 16 13 21 21 13 21 -2 0 -10 -8 -17
-17z"/>
<path d="M7600 1000 c-9 -6 -10 -10 -3 -10 6 0 15 5 18 10 8 12 4 12 -15 0z"/>
<path d="M2713 985 c0 -8 4 -12 9 -9 5 3 6 10 3 15 -9 13 -12 11 -12 -6z"/>
<path d="M3227 979 c7 -7 15 -10 18 -7 3 3 -2 9 -12 12 -14 6 -15 5 -6 -5z"/>
<path d="M5750 986 c0 -2 7 -7 16 -10 8 -3 12 -2 9 4 -6 10 -25 14 -25 6z"/>
<path d="M7115 981 c-3 -5 -2 -12 3 -15 5 -3 9 1 9 9 0 17 -3 19 -12 6z"/>
<path d="M7153 983 c4 -3 1 -13 -6 -22 -11 -14 -10 -14 5 -2 16 12 16 31 1 31
-4 0 -3 -3 0 -7z"/>
<path d="M7187 979 c7 -7 15 -10 18 -7 3 3 -2 9 -12 12 -14 6 -15 5 -6 -5z"/>
<path d="M7690 979 c0 -5 5 -7 10 -4 6 3 10 8 10 11 0 2 -4 4 -10 4 -5 0 -10
-5 -10 -11z"/>
<path d="M7735 980 c3 -5 8 -10 11 -10 2 0 4 5 4 10 0 6 -5 10 -11 10 -5 0 -7
-4 -4 -10z"/>
<path d="M3039 978 c-5 -18 -6 -38 -1 -34 7 8 12 36 6 36 -2 0 -4 -1 -5 -2z"/>
<path d="M6955 971 c-3 -5 -2 -12 3 -15 5 -3 9 1 9 9 0 17 -3 19 -12 6z"/>
<path d="M7033 965 c0 -8 4 -12 9 -9 5 3 6 10 3 15 -9 13 -12 11 -12 -6z"/>
<path d="M7253 965 c0 -8 4 -12 9 -9 5 3 6 10 3 15 -9 13 -12 11 -12 -6z"/>
<path d="M3326 958 c3 -5 10 -6 15 -3 13 9 11 12 -6 12 -8 0 -12 -4 -9 -9z"/>
<path d="M3836 958 c3 -5 10 -6 15 -3 13 9 11 12 -6 12 -8 0 -12 -4 -9 -9z"/>
<path d="M4106 958 c3 -5 10 -6 15 -3 13 9 11 12 -6 12 -8 0 -12 -4 -9 -9z"/>
<path d="M4746 958 c3 -5 10 -6 15 -3 13 9 11 12 -6 12 -8 0 -12 -4 -9 -9z"/>
<path d="M6990 956 c7 -7 13 -7 20 0 6 6 3 10 -10 10 -13 0 -16 -4 -10 -10z"/>
<path d="M7590 959 c0 -5 5 -7 10 -4 6 3 10 8 10 11 0 2 -4 4 -10 4 -5 0 -10
-5 -10 -11z"/>
<path d="M7630 960 c0 -5 5 -10 11 -10 5 0 7 5 4 10 -3 6 -8 10 -11 10 -2 0
-4 -4 -4 -10z"/>
<path d="M2756 938 c3 -4 11 -5 19 -1 21 7 19 12 -4 10 -11 0 -18 -5 -15 -9z"/>
<path d="M2816 938 c3 -4 11 -5 19 -1 21 7 19 12 -4 10 -11 0 -18 -5 -15 -9z"/>
<path d="M3975 940 c3 -5 8 -10 11 -10 2 0 4 5 4 10 0 6 -5 10 -11 10 -5 0 -7
-4 -4 -10z"/>
<path d="M4010 939 c0 -5 5 -7 10 -4 6 3 10 8 10 11 0 2 -4 4 -10 4 -5 0 -10
-5 -10 -11z"/>
<path d="M4615 940 c3 -5 8 -10 11 -10 2 0 4 5 4 10 0 6 -5 10 -11 10 -5 0 -7
-4 -4 -10z"/>
<path d="M4650 939 c0 -5 5 -7 10 -4 6 3 10 8 10 11 0 2 -4 4 -10 4 -5 0 -10
-5 -10 -11z"/>
<path d="M5130 939 c0 -5 5 -7 10 -4 6 3 10 8 10 11 0 2 -4 4 -10 4 -5 0 -10
-5 -10 -11z"/>
<path d="M6090 939 c0 -5 5 -7 10 -4 6 3 10 8 10 11 0 2 -4 4 -10 4 -5 0 -10
-5 -10 -11z"/>
<path d="M6130 939 c0 -5 5 -7 10 -4 6 3 10 8 10 11 0 2 -4 4 -10 4 -5 0 -10
-5 -10 -11z"/>
<path d="M6895 940 c-3 -5 -1 -10 4 -10 6 0 11 5 11 10 0 6 -2 10 -4 10 -3 0
-8 -4 -11 -10z"/>
<path d="M7270 945 c0 -7 30 -13 34 -7 3 4 -4 9 -15 9 -10 1 -19 0 -19 -2z"/>
<path d="M7335 940 c3 -5 8 -10 11 -10 2 0 4 5 4 10 0 6 -5 10 -11 10 -5 0 -7
-4 -4 -10z"/>
<path d="M7366 942 c-3 -5 1 -9 9 -9 8 0 12 4 9 9 -3 4 -7 8 -9 8 -2 0 -6 -4
-9 -8z"/>
<path d="M7475 940 c3 -5 8 -10 11 -10 2 0 4 5 4 10 0 6 -5 10 -11 10 -5 0 -7
-4 -4 -10z"/>
<path d="M3216 922 c-3 -5 1 -9 9 -9 8 0 12 4 9 9 -3 4 -7 8 -9 8 -2 0 -6 -4
-9 -8z"/>
<path d="M3536 922 c-3 -5 1 -9 9 -9 8 0 12 4 9 9 -3 4 -7 8 -9 8 -2 0 -6 -4
-9 -8z"/>
<path d="M4110 919 c0 -5 5 -7 10 -4 6 3 10 8 10 11 0 2 -4 4 -10 4 -5 0 -10
-5 -10 -11z"/>
<path d="M4750 919 c0 -5 5 -7 10 -4 6 3 10 8 10 11 0 2 -4 4 -10 4 -5 0 -10
-5 -10 -11z"/>
<path d="M5230 919 c0 -5 5 -7 10 -4 6 3 10 8 10 11 0 2 -4 4 -10 4 -5 0 -10
-5 -10 -11z"/>
<path d="M5456 922 c-3 -5 1 -9 9 -9 8 0 12 4 9 9 -3 4 -7 8 -9 8 -2 0 -6 -4
-9 -8z"/>
<path d="M6755 921 c-3 -5 -2 -12 3 -15 5 -3 9 1 9 9 0 17 -3 19 -12 6z"/>
<path d="M7236 918 c3 -5 10 -6 15 -3 13 9 11 12 -6 12 -8 0 -12 -4 -9 -9z"/>
<path d="M7740 926 c0 -2 8 -10 18 -17 15 -13 16 -12 3 4 -13 16 -21 21 -21
13z"/>
<path d="M3035 911 c-3 -5 -2 -12 3 -15 5 -3 9 1 9 9 0 17 -3 19 -12 6z"/>
<path d="M7675 889 c-4 -6 -5 -12 -2 -15 2 -3 7 2 10 11 7 17 1 20 -8 4z"/>
<path d="M3073 835 c0 -8 4 -12 9 -9 5 3 6 10 3 15 -9 13 -12 11 -12 -6z"/>
<path d="M4075 841 c-3 -5 -2 -12 3 -15 5 -3 9 1 9 9 0 17 -3 19 -12 6z"/>
<path d="M4233 835 c0 -8 4 -12 9 -9 5 3 6 10 3 15 -9 13 -12 11 -12 -6z"/>
<path d="M4715 841 c-3 -5 -2 -12 3 -15 5 -3 9 1 9 9 0 17 -3 19 -12 6z"/>
<path d="M4873 835 c0 -8 4 -12 9 -9 5 3 6 10 3 15 -9 13 -12 11 -12 -6z"/>
<path d="M6473 835 c0 -8 4 -12 9 -9 5 3 6 10 3 15 -9 13 -12 11 -12 -6z"/>
</g>
</svg>
